<svg width="79" height="50" viewBox="0 0 79 50" fill="none" xmlns="http://www.w3.org/2000/svg">
<path d="M13.7334 31.9763L18.9893 10.7039H27.4678L26.1123 16.1873L30.0127 31.9783L35.2695 10.7039H43.748L36.626 39.5291H23.4014L21.873 33.3464L20.3467 39.5291H7.12207L0 10.7039H8.47852L13.7334 31.9763ZM56.9756 39.5291H48.498V10.7039H56.9756V39.5291ZM78.0039 10.7039V17.4861H70.2021V28.2732C70.2167 29.0101 70.4493 31.7493 73.084 32.408C76.1249 33.1681 77.9884 32.5812 78.002 32.5769V39.5291H73.2539C66.9997 39.5288 61.9091 34.5494 61.7295 28.3386H61.7236V10.7039H78.0039ZM56.9756 2.22534C56.9756 6.90762 53.1803 10.7037 48.498 10.7039V0.868896H56.9756V2.22534ZM70.2021 2.22534C70.2021 6.90769 66.406 10.7039 61.7236 10.7039V0.868896H70.2021V2.22534Z" fill="url(#paint0_linear_380_9953)"/>
<path d="M76.2292 49.0252H75.1976V44.0522H73.4165V43.144H78.0103V44.0522H76.2292V49.0252Z" fill="#6E57E2"/>
<path d="M71.1903 49.0252H70.1587V43.144H71.1903V49.0252Z" fill="#6E57E2"/>
<path d="M62.2473 49.0252H61.2509L58.1825 44.8193V49.0252H57.1509V43.144H58.209L61.2156 47.2176V43.144H62.2473V49.0252Z" fill="#6E57E2"/>
<path d="M54.5419 49.0252H53.5103V43.144H54.5419V49.0252Z" fill="#6E57E2"/>
<path d="M45.5988 49.0252H44.6025L41.5341 44.8193V49.0252H40.5024V43.144H41.5605L44.5672 47.2176V43.144H45.5988V49.0252Z" fill="#6E57E2"/>
<path d="M38.0827 49.0252H34.0532V43.144H38.0827V44.0522H35.0848V45.5688H38.021V46.477H35.0848V48.117H38.0827V49.0252Z" fill="#6E57E2"/>
<path d="M31.4487 49.0252H30.4171V44.4843L28.6184 49.0252H28.1775L26.37 44.4843V49.0252H25.3384V43.144H26.7932L28.398 47.1824L29.9939 43.144H31.4487V49.0252Z" fill="#6E57E2"/>
<path d="M19.9896 49.1313C18.2261 49.1313 16.9829 47.844 16.9829 46.0893C16.9829 44.3347 18.2261 43.0474 19.9896 43.0474C21.7442 43.0474 22.9963 44.3347 22.9963 46.0893C22.9963 47.844 21.7442 49.1313 19.9896 49.1313ZM19.9896 48.2143C21.1711 48.2143 21.9382 47.2973 21.9382 46.0893C21.9382 44.8725 21.1711 43.9644 19.9896 43.9644C18.7993 43.9644 18.041 44.8725 18.041 46.0893C18.041 47.2973 18.7993 48.2143 19.9896 48.2143Z" fill="#6E57E2"/>
<path d="M13.6892 49.0252H12.587L11.4496 44.6782L10.3033 49.0252H9.20116L7.52588 43.144H8.67212L9.81837 47.6673L11.0352 43.144H11.8552L13.0719 47.6673L14.2182 43.144H15.3733L13.6892 49.0252Z" fill="#6E57E2"/>
<defs>
<linearGradient id="paint0_linear_380_9953" x1="56.7617" y1="0.807523" x2="13.3336" y2="29.4449" gradientUnits="userSpaceOnUse">
<stop stop-color="#6E57E2"/>
<stop offset="1" stop-color="#42D5E2"/>
</linearGradient>
</defs>
</svg>
